<?xml version="1.0" encoding="utf-8"?>
<!-- Generator: Adobe Illustrator 22.0.1, SVG Export Plug-In . SVG Version: 6.00 Build 0)  -->
<svg version="1.1" id="Layer_1" xmlns="http://www.w3.org/2000/svg" xmlns:xlink="http://www.w3.org/1999/xlink" x="0px" y="0px"
	 viewBox="0 0 512 512" style="enable-background:new 0 0 512 512;" xml:space="preserve">
<style type="text/css">
	.st0{fill:#FFFFFF;}
	.st1{fill:none;stroke:#FF4200;stroke-width:4;stroke-miterlimit:10;}
	.st2{fill:#FF4200;}
</style>
<g>
	<rect y="-0.1" width="512" height="512"/>
	<path class="st0" d="M256.9,160c-53,0-96,43-96,96s43,96,96,96s96-43,96-96S309.9,160,256.9,160z M256.9,270.5
		c-8,0-14.5-6.5-14.5-14.5c0-8,6.5-14.5,14.5-14.5c8,0,14.5,6.5,14.5,14.5C271.3,264,264.8,270.5,256.9,270.5z"/>
	<path class="st0" d="M424.4,132.8c3.4-5.1,5.4-11.2,5.4-17.8c0-17.7-14.3-32-32-32c-6.6,0-12.7,2-17.8,5.4
		C345.6,63,303,48,256.9,48c-114.9,0-208,93.1-208,208c0,114.9,93.1,208,208,208c114.9,0,208-93.1,208-208
		C464.9,209.9,449.8,167.3,424.4,132.8z M398.3,100.5c8,0,14.5,6.5,14.5,14.5s-6.5,14.5-14.5,14.5c-8,0-14.5-6.5-14.5-14.5
		S390.3,100.5,398.3,100.5z M392.7,391.8c-17.6,17.6-38.2,31.5-61.1,41.2c-23.7,10-48.8,15.1-74.8,15.1s-51.1-5.1-74.8-15.1
		c-22.9-9.7-43.4-23.5-61.1-41.2c-17.6-17.6-31.5-38.2-41.2-61.1c-10-23.7-15.1-48.8-15.1-74.8s5.1-51.1,15.1-74.8
		c9.7-22.9,23.5-43.4,41.2-61.1c17.6-17.6,38.2-31.5,61.1-41.2c23.7-10,48.8-15.1,74.8-15.1c25.9,0,51.1,5.1,74.8,15.1
		c13.4,5.7,26.1,12.8,37.8,21.3c-2.3,4.4-3.6,9.4-3.6,14.7c0,17.7,14.3,32,32,32c5.3,0,10.3-1.3,14.7-3.6
		c8.5,11.7,15.6,24.4,21.3,37.8c10,23.7,15.1,48.8,15.1,74.8c0,25.9-5.1,51.1-15.1,74.8C424.2,353.6,410.3,374.2,392.7,391.8z"/>
	<line class="st1" x1="399" y1="114.1" x2="257.7" y2="256.9"/>
	<circle class="st2" cx="256.9" cy="256" r="6.2"/>
	<circle class="st2" cx="398.3" cy="115" r="6.2"/>
</g>
</svg>
