<?xml version="1.0" encoding="utf-8"?>
<!-- Generator: Adobe Illustrator 22.0.1, SVG Export Plug-In . SVG Version: 6.00 Build 0)  -->
<svg version="1.1" id="Layer_1" xmlns="http://www.w3.org/2000/svg" xmlns:xlink="http://www.w3.org/1999/xlink" x="0px" y="0px"
	 viewBox="0 0 416 416" style="enable-background:new 0 0 416 416;" xml:space="preserve">
<style type="text/css">
	.st0{fill:#FFFFFF;}
	.st1{fill:none;stroke:#FF4200;stroke-width:4;stroke-miterlimit:10;}
	.st2{fill:#FF4200;}
</style>
<g>
	<path class="st0" d="M208,112c-53,0-96,43-96,96s43,96,96,96s96-43,96-96S261,112,208,112z M208,222.5c-8,0-14.5-6.5-14.5-14.5
		c0-8,6.5-14.5,14.5-14.5s14.5,6.5,14.5,14.5C222.5,216,216,222.5,208,222.5z"/>
	<path class="st0" d="M375.6,84.8C379,79.7,381,73.6,381,67c0-17.7-14.3-32-32-32c-6.6,0-12.7,2-17.8,5.4C296.7,15,254.1,0,208,0
		C93.1,0,0,93.1,0,208c0,114.9,93.1,208,208,208c114.9,0,208-93.1,208-208C416,161.9,401,119.3,375.6,84.8z M349.4,52.5
		c8,0,14.5,6.5,14.5,14.5s-6.5,14.5-14.5,14.5c-8,0-14.5-6.5-14.5-14.5S341.5,52.5,349.4,52.5z M343.8,343.8
		c-17.6,17.6-38.2,31.5-61.1,41.2c-23.7,10-48.8,15.1-74.8,15.1s-51.1-5.1-74.8-15.1c-22.9-9.7-43.4-23.5-61.1-41.2
		c-17.6-17.6-31.5-38.2-41.2-61.1c-10-23.7-15.1-48.8-15.1-74.8S21,156.9,31,133.2c9.7-22.9,23.5-43.4,41.2-61.1
		c17.6-17.6,38.2-31.5,61.1-41.2c23.7-10,48.8-15.1,74.8-15.1c25.9,0,51.1,5.1,74.8,15.1c13.4,5.7,26.1,12.8,37.8,21.3
		c-2.3,4.4-3.6,9.4-3.6,14.7c0,17.7,14.3,32,32,32c5.3,0,10.3-1.3,14.7-3.6c8.5,11.7,15.6,24.4,21.3,37.8
		c10,23.7,15.1,48.8,15.1,74.8c0,25.9-5.1,51.1-15.1,74.8C375.3,305.6,361.5,326.2,343.8,343.8z"/>
	<line class="st1" x1="350.1" y1="66.1" x2="208.9" y2="208.9"/>
	<circle class="st2" cx="208" cy="208" r="6.2"/>
	<circle class="st2" cx="349.4" cy="67" r="6.2"/>
</g>
</svg>
