<?xml version="1.0" encoding="utf-8"?>
<!-- Generator: Adobe Illustrator 22.0.1, SVG Export Plug-In . SVG Version: 6.00 Build 0)  -->
<svg version="1.1" id="Layer_1" xmlns="http://www.w3.org/2000/svg" xmlns:xlink="http://www.w3.org/1999/xlink" x="0px" y="0px"
	 viewBox="0 0 743 617" style="enable-background:new 0 0 743 617;" xml:space="preserve">
<style type="text/css">
	.st0{fill:#FFFFFF;}
	.st1{fill:none;stroke:#FF4200;stroke-width:4;stroke-miterlimit:10;}
	.st2{fill:#FF4200;}
	.st3{fill:#F15A24;}
</style>
<g>
	<rect width="743" height="617"/>
	<g>
		<path class="st0" d="M371,156c-53,0-96,43-96,96s43,96,96,96s96-43,96-96S424,156,371,156z M371,266.5c-8,0-14.5-6.5-14.5-14.5
			c0-8,6.5-14.5,14.5-14.5s14.5,6.5,14.5,14.5C385.5,260,379,266.5,371,266.5z"/>
		<path class="st0" d="M538.6,128.8c3.4-5.1,5.4-11.2,5.4-17.8c0-17.7-14.3-32-32-32c-6.6,0-12.7,2-17.8,5.4
			C459.7,59,417.1,44,371,44c-114.9,0-208,93.1-208,208c0,114.9,93.1,208,208,208c114.9,0,208-93.1,208-208
			C579,205.9,564,163.3,538.6,128.8z M512.4,96.5c8,0,14.5,6.5,14.5,14.5s-6.5,14.5-14.5,14.5c-8,0-14.5-6.5-14.5-14.5
			S504.5,96.5,512.4,96.5z M506.8,387.8c-17.6,17.6-38.2,31.5-61.1,41.2c-23.7,10-48.8,15.1-74.8,15.1s-51.1-5.1-74.8-15.1
			c-22.9-9.7-43.4-23.5-61.1-41.2c-17.6-17.6-31.5-38.2-41.2-61.1c-10-23.7-15.1-48.8-15.1-74.8s5.1-51.1,15.1-74.8
			c9.7-22.9,23.5-43.4,41.2-61.1c17.6-17.6,38.2-31.5,61.1-41.2c23.7-10,48.8-15.1,74.8-15.1c25.9,0,51.1,5.1,74.8,15.1
			c13.4,5.7,26.1,12.8,37.8,21.3c-2.3,4.4-3.6,9.4-3.6,14.7c0,17.7,14.3,32,32,32c5.3,0,10.3-1.3,14.7-3.6
			c8.5,11.7,15.6,24.4,21.3,37.8c10,23.7,15.1,48.8,15.1,74.8c0,25.9-5.1,51.1-15.1,74.8C538.3,349.6,524.5,370.2,506.8,387.8z"/>
		<line class="st1" x1="513.1" y1="110.1" x2="371.9" y2="252.9"/>
		<circle class="st2" cx="371" cy="252" r="6.2"/>
		<circle class="st2" cx="512.4" cy="111" r="6.2"/>
	</g>
	<g>
		<g>
			<path class="st0" d="M86.7,523.1v45.8h-7.4v-20.4h-23v20.4h-7.5v-45.8h7.5v20h23v-20H86.7z"/>
			<path class="st0" d="M142.3,568.9h-5.8c-0.7,0-1.2-0.2-1.6-0.5c-0.4-0.3-0.7-0.7-0.9-1.2l-3.8-10.1h-19.7l-3.8,10.1
				c-0.2,0.4-0.5,0.8-0.9,1.2c-0.4,0.4-1,0.5-1.6,0.5h-5.8l18.2-45.8h7.5L142.3,568.9z M128.2,551.8l-6.3-16.7
				c-0.5-1.3-1-2.9-1.6-4.9c-0.2,1-0.5,1.9-0.8,2.8c-0.3,0.8-0.5,1.6-0.8,2.2l-6.3,16.7H128.2z"/>
			<path class="st0" d="M184.5,558.7c0.4,0,0.8,0.2,1,0.5l3,3.2c-1.9,2.2-4.2,4-6.9,5.2c-2.7,1.2-6,1.8-9.7,1.8
				c-3.3,0-6.4-0.6-9.1-1.7c-2.7-1.2-5-2.8-6.9-4.8c-1.9-2.1-3.4-4.5-4.4-7.4s-1.5-6-1.5-9.4s0.5-6.6,1.6-9.5
				c1.1-2.9,2.6-5.3,4.6-7.4c2-2.1,4.4-3.7,7.1-4.8s5.8-1.7,9.1-1.7c3.3,0,6.2,0.5,8.8,1.6c2.5,1.1,4.7,2.5,6.6,4.3l-2.4,3.5
				c-0.2,0.2-0.4,0.4-0.6,0.6c-0.2,0.2-0.6,0.3-1,0.3c-0.4,0-0.9-0.2-1.4-0.6s-1.2-0.8-2.1-1.3c-0.8-0.5-1.9-0.9-3.1-1.3
				c-1.3-0.4-2.8-0.6-4.7-0.6c-2.2,0-4.2,0.4-6,1.1c-1.8,0.8-3.4,1.9-4.7,3.3c-1.3,1.5-2.3,3.2-3.1,5.3c-0.7,2.1-1.1,4.5-1.1,7.2
				c0,2.7,0.4,5.1,1.1,7.2c0.8,2.1,1.8,3.9,3.1,5.3c1.3,1.5,2.9,2.6,4.7,3.3c1.8,0.8,3.7,1.1,5.8,1.1c1.3,0,2.4-0.1,3.4-0.2
				c1-0.1,1.9-0.4,2.8-0.7c0.8-0.3,1.6-0.7,2.4-1.2c0.8-0.5,1.5-1,2.2-1.7C183.6,558.9,184.1,558.7,184.5,558.7z"/>
			<path class="st0" d="M208.8,568.9h-7.5v-45.8h7.5V568.9z"/>
			<path class="st0" d="M254.6,562.9l0,6H226v-45.8h28.6v6h-21.1V543h16.9v5.8h-16.9v14.2H254.6z"/>
			<path class="st0" d="M306.9,523.1v45.8h-3.8c-0.6,0-1.1-0.1-1.5-0.3s-0.8-0.5-1.1-1l-25.2-32.3c0.1,0.6,0.1,1.2,0.1,1.8
				c0,0.6,0,1.2,0,1.7v30.1H269v-45.8h3.9c0.3,0,0.6,0,0.8,0c0.2,0,0.4,0.1,0.6,0.2c0.2,0.1,0.4,0.2,0.5,0.4
				c0.2,0.2,0.3,0.4,0.5,0.6l25.2,32.3c-0.1-0.7-0.1-1.3-0.1-1.9c0-0.6,0-1.2,0-1.8v-29.9H306.9z"/>
			<path class="st0" d="M364.4,546c0,3.4-0.6,6.5-1.7,9.3c-1.1,2.8-2.7,5.2-4.7,7.2c-2,2-4.4,3.6-7.2,4.7c-2.8,1.1-5.9,1.7-9.4,1.7
				h-17.3v-45.8h17.3c3.4,0,6.6,0.6,9.4,1.7c2.8,1.1,5.2,2.7,7.2,4.7c2,2,3.6,4.4,4.7,7.2C363.8,539.5,364.4,542.6,364.4,546z
				 M356.8,546c0-2.6-0.4-5-1.1-7.1s-1.7-3.9-3.1-5.3c-1.3-1.4-2.9-2.5-4.8-3.3c-1.9-0.8-4-1.2-6.4-1.2h-9.8v33.8h9.8
				c2.4,0,4.5-0.4,6.4-1.1c1.9-0.8,3.5-1.9,4.8-3.3s2.3-3.2,3.1-5.3S356.8,548.7,356.8,546z"/>
			<path class="st0" d="M415.9,568.9h-5.8c-0.7,0-1.2-0.2-1.6-0.5c-0.4-0.3-0.7-0.7-0.9-1.2l-3.8-10.1h-19.7l-3.8,10.1
				c-0.2,0.4-0.5,0.8-0.9,1.2c-0.4,0.4-1,0.5-1.6,0.5H372l18.2-45.8h7.5L415.9,568.9z M401.8,551.8l-6.3-16.7
				c-0.5-1.3-1-2.9-1.6-4.9c-0.2,1-0.5,1.9-0.8,2.8c-0.3,0.8-0.5,1.6-0.8,2.2l-6.3,16.7H401.8z"/>
		</g>
		<g>
			<path class="st3" d="M474.8,530.9c-0.3,0.4-0.5,0.6-0.8,0.8c-0.3,0.2-0.6,0.3-0.9,0.3c-0.4,0-0.8-0.2-1.2-0.5s-1-0.7-1.6-1.2
				s-1.4-0.8-2.2-1.2s-1.9-0.5-3.2-0.5c-1.3,0-2.4,0.2-3.3,0.6c-1,0.4-1.8,0.9-2.5,1.5c-0.7,0.6-1.2,1.4-1.5,2.3s-0.5,1.8-0.5,2.8
				c0,1,0.2,1.9,0.7,2.6c0.5,0.7,1.2,1.3,2,1.8c0.8,0.5,1.8,1,2.8,1.4c1,0.4,2.1,0.8,3.2,1.2c1.1,0.4,2.2,0.9,3.2,1.4
				c1,0.5,2,1.2,2.8,2c0.8,0.8,1.5,1.8,2,2.9c0.5,1.1,0.7,2.5,0.7,4.1c0,2.2-0.4,4.3-1.1,6.3c-0.8,2-1.8,3.7-3.3,5.2
				c-1.4,1.5-3.1,2.6-5.2,3.5c-2,0.9-4.3,1.3-6.8,1.3c-1.3,0-2.6-0.1-3.9-0.4c-1.3-0.3-2.4-0.7-3.5-1.2s-2.1-1.1-3.1-1.9
				s-1.7-1.6-2.4-2.5l2.5-3.4c0.2-0.3,0.5-0.5,0.8-0.7c0.3-0.2,0.6-0.3,1-0.3c0.5,0,0.9,0.2,1.4,0.7c0.5,0.5,1.1,1,1.8,1.5
				s1.6,1.1,2.6,1.5s2.3,0.7,3.8,0.7c1.3,0,2.5-0.2,3.6-0.6c1.1-0.4,2-1,2.7-1.7s1.3-1.6,1.7-2.7c0.4-1,0.6-2.2,0.6-3.5
				c0-1.1-0.2-2-0.7-2.7c-0.5-0.7-1.2-1.3-2-1.8c-0.8-0.5-1.7-0.9-2.8-1.3c-1-0.4-2.1-0.7-3.2-1.1c-1.1-0.4-2.1-0.9-3.2-1.4
				c-1-0.5-2-1.2-2.8-2c-0.8-0.8-1.5-1.8-2-3s-0.7-2.6-0.7-4.3c0-1.9,0.3-3.8,1-5.5c0.7-1.8,1.7-3.3,3-4.7c1.3-1.4,2.9-2.4,4.8-3.3
				s4-1.2,6.4-1.2c1.2,0,2.4,0.1,3.5,0.4c1.1,0.2,2.1,0.6,3.1,1c1,0.5,1.9,1,2.7,1.6s1.5,1.3,2.1,2.1L474.8,530.9z"/>
			<path class="st3" d="M514.3,529.1h-13l-4.9,39.8h-7.1l4.9-39.8h-13l0.7-6H515L514.3,529.1z"/>
			<path class="st3" d="M532.9,563.2c1.6,0,3-0.3,4.4-0.9c1.3-0.6,2.5-1.5,3.5-2.5c1-1.1,1.8-2.4,2.5-3.9c0.6-1.5,1.1-3.2,1.3-5
				l3.4-27.7h7.2l-3.4,27.7c-0.3,2.7-1,5.1-2.1,7.4c-1.1,2.3-2.5,4.2-4.2,5.9c-1.7,1.7-3.7,3-5.9,3.9c-2.2,0.9-4.7,1.4-7.4,1.4
				s-5-0.5-7-1.4c-2-0.9-3.7-2.2-4.9-3.9c-1.3-1.7-2.2-3.6-2.7-5.9c-0.5-2.3-0.6-4.8-0.3-7.4l3.3-27.7h7.2l-3.4,27.7
				c-0.2,1.8-0.2,3.5,0.1,5c0.3,1.5,0.8,2.8,1.5,3.9s1.7,1.9,2.9,2.5S531.4,563.2,532.9,563.2z"/>
			<path class="st3" d="M599.5,542.9c0,2.6-0.3,5-0.8,7.3c-0.6,2.3-1.3,4.4-2.4,6.3c-1,1.9-2.3,3.7-3.7,5.2s-3.1,2.9-4.9,3.9
				c-1.8,1.1-3.7,1.9-5.9,2.5s-4.3,0.9-6.7,0.9h-16l5.6-45.8h16c2.9,0,5.4,0.5,7.7,1.5c2.3,1,4.2,2.3,5.9,4.1s2.8,3.8,3.7,6.2
				C599.1,537.4,599.5,540,599.5,542.9z M592.2,543.1c0-2.2-0.3-4.1-0.8-5.9c-0.5-1.7-1.3-3.2-2.4-4.5s-2.3-2.2-3.8-2.8
				c-1.5-0.7-3.2-1-5-1h-8.8l-4.3,34.2h8.8c2.4,0,4.6-0.5,6.6-1.4c2-0.9,3.7-2.2,5.1-4c1.4-1.7,2.5-3.8,3.3-6.3
				S592.2,546.2,592.2,543.1z"/>
			<path class="st3" d="M611.5,568.9h-7.2l5.6-45.8h7.2L611.5,568.9z"/>
			<path class="st3" d="M664.8,542.9c0,2.5-0.3,5-0.8,7.3c-0.6,2.3-1.3,4.4-2.4,6.4c-1,2-2.3,3.7-3.7,5.3c-1.5,1.6-3.1,2.9-4.9,4
				s-3.8,2-5.9,2.6c-2.1,0.6-4.3,0.9-6.6,0.9c-2.9,0-5.4-0.5-7.7-1.5c-2.3-1-4.3-2.4-5.9-4.2c-1.6-1.8-2.8-3.9-3.7-6.4
				c-0.9-2.5-1.3-5.1-1.3-8c0-2.6,0.3-5,0.8-7.3c0.6-2.3,1.4-4.5,2.4-6.4c1-2,2.3-3.8,3.7-5.3s3.1-2.9,4.9-4.1s3.8-2,5.9-2.6
				c2.1-0.6,4.3-0.9,6.6-0.9c2.9,0,5.4,0.5,7.7,1.5c2.3,1,4.2,2.4,5.9,4.2c1.6,1.8,2.8,4,3.7,6.4C664.3,537.3,664.8,540,664.8,542.9
				z M657.4,543c0-2.2-0.3-4.2-0.8-5.9c-0.6-1.8-1.3-3.3-2.4-4.5c-1-1.3-2.3-2.2-3.8-2.9c-1.5-0.7-3.2-1-5-1c-2.4,0-4.6,0.5-6.6,1.4
				s-3.7,2.3-5.1,4.1c-1.4,1.8-2.5,3.9-3.3,6.4c-0.8,2.5-1.2,5.3-1.2,8.4c0,2.2,0.3,4.2,0.8,5.9c0.6,1.8,1.3,3.3,2.4,4.5
				c1,1.3,2.3,2.2,3.8,2.9c1.5,0.7,3.2,1,5.1,1c2.4,0,4.6-0.5,6.6-1.4c2-1,3.7-2.3,5.1-4.1c1.4-1.8,2.5-3.9,3.3-6.4
				C657,548.9,657.4,546.1,657.4,543z"/>
			<path class="st3" d="M696.2,530.9c-0.3,0.4-0.5,0.6-0.8,0.8c-0.3,0.2-0.6,0.3-0.9,0.3c-0.4,0-0.8-0.2-1.2-0.5s-1-0.7-1.6-1.2
				s-1.4-0.8-2.2-1.2s-1.9-0.5-3.2-0.5c-1.3,0-2.4,0.2-3.3,0.6c-1,0.4-1.8,0.9-2.5,1.5c-0.7,0.6-1.2,1.4-1.5,2.3s-0.5,1.8-0.5,2.8
				c0,1,0.2,1.9,0.7,2.6c0.5,0.7,1.2,1.3,2,1.8c0.8,0.5,1.8,1,2.8,1.4c1,0.4,2.1,0.8,3.2,1.2c1.1,0.4,2.2,0.9,3.2,1.4
				c1,0.5,2,1.2,2.8,2c0.8,0.8,1.5,1.8,2,2.9c0.5,1.1,0.7,2.5,0.7,4.1c0,2.2-0.4,4.3-1.1,6.3c-0.8,2-1.8,3.7-3.3,5.2
				c-1.4,1.5-3.1,2.6-5.2,3.5c-2,0.9-4.3,1.3-6.8,1.3c-1.3,0-2.6-0.1-3.9-0.4c-1.3-0.3-2.4-0.7-3.5-1.2s-2.1-1.1-3.1-1.9
				s-1.7-1.6-2.4-2.5l2.5-3.4c0.2-0.3,0.5-0.5,0.8-0.7c0.3-0.2,0.6-0.3,1-0.3c0.5,0,0.9,0.2,1.4,0.7c0.5,0.5,1.1,1,1.8,1.5
				s1.6,1.1,2.6,1.5s2.3,0.7,3.8,0.7c1.3,0,2.5-0.2,3.6-0.6c1.1-0.4,2-1,2.7-1.7s1.3-1.6,1.7-2.7c0.4-1,0.6-2.2,0.6-3.5
				c0-1.1-0.2-2-0.7-2.7c-0.5-0.7-1.2-1.3-2-1.8c-0.8-0.5-1.7-0.9-2.8-1.3c-1-0.4-2.1-0.7-3.2-1.1c-1.1-0.4-2.1-0.9-3.2-1.4
				c-1-0.5-2-1.2-2.8-2c-0.8-0.8-1.5-1.8-2-3s-0.7-2.6-0.7-4.3c0-1.9,0.3-3.8,1-5.5c0.7-1.8,1.7-3.3,3-4.7c1.3-1.4,2.9-2.4,4.8-3.3
				s4-1.2,6.4-1.2c1.2,0,2.4,0.1,3.5,0.4c1.1,0.2,2.1,0.6,3.1,1c1,0.5,1.9,1,2.7,1.6s1.5,1.3,2.1,2.1L696.2,530.9z"/>
		</g>
	</g>
</g>
</svg>
